<svg id="Camada_1" data-name="Camada 1" xmlns="http://www.w3.org/2000/svg" viewBox="0 0 217.31 217.24"><defs><style>.cls-1{fill:#fff;}</style></defs><path class="cls-1" d="M192.34,109.08l-3.17-1c-1.65,2.31-3.07,4.59-4.79,6.62a21.08,21.08,0,0,1-9.81,6.4c-1,.31-1.08.71-.87,1.64,1.9,8.26,3.75,16.53,5.61,24.8,0,.18.1.35.17.63,10.35-1.68,19.63.58,27.6,7.46a31.62,31.62,0,0,1,10.67,19.1,32.48,32.48,0,0,1-61.38,19.23l-19.68,8.53c2.09,7.77,1.08,15-3.78,21.51a22.63,22.63,0,0,1-13.64,8.81,23.75,23.75,0,0,1-16.52-44.08,24,24,0,0,1,32.52,10.14l19.7-8.54a32.57,32.57,0,0,1,20.72-41.15c-2-9-4-17.92-6.06-26.9-8.4.61-15.47-2.05-20.92-8.5a22.64,22.64,0,0,1-5.47-16,23.66,23.66,0,0,1,24.41-22.92,23,23,0,0,1,18.21,9.36c4.55,5.93,5.73,12.67,4.24,20l3.61,1.18a23.81,23.81,0,1,1,14.71,33.31C197.44,135.55,188.45,123.63,192.34,109.08Zm-32.21,83.24a28.46,28.46,0,0,0,52.39-22.11c-5.6-15.33-21.36-20.73-32.12-18.07.06.36.12.74.2,1.11q2.79,12.39,5.59,24.79c.51,2.29.19,2.9-1.94,3.82l-13.4,5.8Zm37.59-85.61,5.13,1.66,12.37,4c1.49.48,2,1.52,1.44,2.81-.47,1-1.32,1.32-2.73.86l-13-4.19-4.66-1.48c-2.7,7.31.19,19,11,23.8a19.85,19.85,0,1,0,15.09-36.71C211.48,93.28,201.11,99.35,197.72,106.71Zm-66.23,93.78a19.81,19.81,0,1,0-9.23,27.18c10.49-4.84,13.28-16.3,10.66-23.53-.49.2-1,.39-1.46.6q-8.45,3.66-16.88,7.32c-1.38.6-2.5.27-3-.8s.06-2.18,1.46-2.79l5.38-2.33Zm37.23-82.24c-.12-.54-.21-1-.31-1.44l-4-17.49c-.19-.85-.15-1.74.63-2.16a3.1,3.1,0,0,1,2.11-.27c4,1.22,7.95,2.55,11.92,3.84L186.2,103c1.79-5.85-.11-15.07-7.59-20.46a19.85,19.85,0,0,0-29.2,25.33C154.05,116.64,163.39,119.21,168.72,118.25Zm-10,70.43,23.57-10.22c-1.92-8.51-3.82-17-5.72-25.39C160.43,158.52,154,176.09,158.72,188.68Zm26.38-81.94L169,101.53c1.24,5.51,2.43,10.79,3.64,16.14A20.32,20.32,0,0,0,185.1,106.74Z" transform="translate(-21.59 -16.11)"/><path class="cls-1" d="M84.67,103.18c2,7.44,4,14.8,5.93,22.25,8.65-1.47,16.2.61,22.32,7a23,23,0,0,1,6.48,15.92,23.79,23.79,0,1,1-47.52-1.26l-3.77-.79c-2.74,7.86-7.92,13.28-15.88,15.75a23.09,23.09,0,0,1-16.53-1A23.75,23.75,0,0,1,47,115.62a23,23,0,0,1,16.79,8.7,23.53,23.53,0,0,1,5.17,18.1c.33.09.58.17.83.22l2.79.57a24,24,0,0,1,14.36-16.6c-2-7.48-4-14.91-6-22.42-10.83,1.78-20.43-.7-28.52-8.13A31,31,0,0,1,42.26,75.82a32.4,32.4,0,0,1,62.47-15.08,31.3,31.3,0,0,1-1,25.49C99.84,94.52,93.36,100.05,84.67,103.18Zm-4.87-3c-.06-.29-.11-.58-.19-.87q-2.49-9.39-5-18.77c-.8-3-1.66-6-2.36-9a2.83,2.83,0,0,1,.56-2.15,2,2,0,0,1,1.85-.35A3.23,3.23,0,0,1,76,70.88c2,7.24,3.9,14.5,5.84,21.76q.89,3.31,1.79,6.63A28.49,28.49,0,1,0,47.78,82.36C53.74,98.05,69.73,102.78,79.8,100.22ZM64.94,141.63c1.4-8.18-3.91-19.27-15.48-21.72a19.85,19.85,0,1,0-7.8,38.92c9.8,1.78,21-4.89,22.4-13.35-.25-.07-.5-.16-.75-.22l-19-3.94c-1.41-.29-2.08-1.19-1.83-2.42s1.26-1.67,2.62-1.39l9.12,1.91Zm11,6.26c-.6,8.44,4.95,16.58,13.19,19.54A19.85,19.85,0,0,0,110.93,136c-5.56-6.73-14.22-8.14-19.24-6.58.65,2.47,1.29,4.94,2,7.42L96.88,149c.53,2-.58,3.18-2.56,2.76l-8.9-1.86Zm16.53-.55c-1.53-5.74-3-11.28-4.5-16.85-5.53,2.07-11.39,9.11-11.35,13.56Z" transform="translate(-21.59 -16.11)"/><path class="cls-1" d="M178.6,52.28l-17.42-5.62c-.57,1.31-1,2.57-1.62,3.76A23.71,23.71,0,1,1,162,41.75c0,.69,0,1.11.76,1.36,5.52,1.74,11,3.53,16.54,5.31.18,0,.37.08.66.14a14.7,14.7,0,0,1,10.67-7.7,14.1,14.1,0,0,1,10,2,14.58,14.58,0,0,1-11.08,26.59C182.13,67.74,178.06,61.45,178.6,52.28ZM158,41.56c1.15-10.41-7-20.38-17.37-21.45a19.88,19.88,0,1,0-3.13,39.61c8.57.49,19.2-7.1,19.64-14.35l-7-2.24-13-4.19c-.83-.27-1.59-.6-1.67-1.65a1.91,1.91,0,0,1,2.64-2.13c3.4,1.07,6.78,2.18,10.17,3.27Zm25.82,8.26c.28.12.48.21.69.28,3.32,1.08,6.64,2.13,9.95,3.22a1.74,1.74,0,0,1,1.27,2.5A1.71,1.71,0,0,1,193.34,57c-1.14-.34-2.27-.72-3.4-1.08l-7.41-2.38c-1.19,4.76,2.18,10.26,7.17,11.88a10.69,10.69,0,1,0-5.84-15.61Z" transform="translate(-21.59 -16.11)"/><path class="cls-1" d="M48.33,194a14.35,14.35,0,1,1,14.35,14.36A14.32,14.32,0,0,1,48.33,194Zm24.8,0a10.47,10.47,0,1,0-10.5,10.46A10.5,10.5,0,0,0,73.13,194Z" transform="translate(-21.59 -16.11)"/><path class="cls-1" d="M135.53,143.91a12.43,12.43,0,1,1,12.58,12.39A12.42,12.42,0,0,1,135.53,143.91Zm3.88,0a8.55,8.55,0,1,0,8.48-8.53A8.56,8.56,0,0,0,139.41,143.88Z" transform="translate(-21.59 -16.11)"/><path class="cls-1" d="M111.66,115.84a12.42,12.42,0,1,1,12.58-12.07A12.43,12.43,0,0,1,111.66,115.84Zm8.68-12.36a8.54,8.54,0,1,0-8.52,8.49A8.61,8.61,0,0,0,120.34,103.48Z" transform="translate(-21.59 -16.11)"/></svg>