<svg width="143" height="42" viewBox="0 0 143 42" fill="none" xmlns="http://www.w3.org/2000/svg">
<g clip-path="url(#clip0_405_980)">
<path fill-rule="evenodd" clip-rule="evenodd" d="M12.641 15.1784C13.6977 16.0136 14.7262 16.8183 15.7441 17.6382C16.5929 18.3018 16.7831 19.5832 16.1667 20.5023C15.8357 20.9981 15.3214 21.307 14.7579 21.3451C14.3106 21.3871 13.8668 21.246 13.504 20.9561C11.123 19.0798 8.74905 17.1997 6.37511 15.3157C5.51218 14.6788 5.29029 13.4089 5.87497 12.4745C6.24831 11.8796 6.88583 11.5402 7.54799 11.5821C8.38275 11.5821 9.21398 11.5821 10.0241 11.5631C11.521 11.5059 12.5248 10.6592 12.9545 9.10324C13.2821 8.01635 13.2046 6.83792 12.7361 5.81204C12.2149 4.64887 11.3238 4.13021 10.1544 4.11877C8.08336 4.0997 6.01233 4.11877 3.94482 4.11877C3.88846 4.1264 3.83211 4.13784 3.77928 4.15309V19.3086C3.78632 20.4375 2.94452 21.3604 1.90196 21.3642C1.15526 21.368 0.475483 20.8951 0.169054 20.1591C0.0598669 19.8807 0.0035122 19.5832 -9.9669e-06 19.2819V2.08227C-0.0281873 0.980114 0.771345 0.0610188 1.78925 0.0266957C1.80334 0.0266957 1.81391 0.0266957 1.828 0.0266957C3.26152 0.0190684 4.69856 0.00381367 6.13208 0H7.90373C8.74905 0 9.59437 0.011441 10.4397 0.0266957C13.5709 0.0953419 16.0787 2.41406 16.7409 5.77772C17.2304 8.26042 16.8712 10.5906 15.5046 12.6957C14.8671 13.6758 14.0006 14.4615 12.9933 14.9649L12.715 15.106C12.6833 15.1174 12.6692 15.1441 12.641 15.1784Z" fill="white"/>
<path fill-rule="evenodd" clip-rule="evenodd" d="M104.376 11.6546C104.348 10.2435 104.489 8.85917 104.066 7.50531C103.555 5.8845 102.678 4.68319 101.062 4.27894C100.181 4.06156 99.2617 4.06156 98.3812 4.27894C97.4302 4.48488 96.5919 5.07982 96.046 5.94552C94.9365 7.68837 94.9752 9.65623 95.0598 11.6584L104.379 11.6508L104.376 11.6546ZM104.376 15.8001H95.0175V17.745C95.0175 18.3095 95.0316 18.8739 95.0175 19.4345C94.9471 20.5595 94.0454 21.41 93.0063 21.3299C92.0413 21.2574 91.284 20.4108 91.2523 19.362C91.2382 15.9412 91.1537 12.5127 91.2734 9.09943C91.3826 5.93408 92.5027 3.21493 95.0281 1.39199C96.5496 0.293653 98.272 -0.045764 100.075 0.0190685C104.193 0.167802 107.134 2.90602 107.958 7.39472C108.099 8.16126 108.173 8.94307 108.176 9.72487C108.197 12.8978 108.176 16.0746 108.176 19.2476C108.201 20.2201 107.592 21.0744 106.718 21.3032C105.845 21.532 104.943 21.0591 104.57 20.1705C104.453 19.8692 104.394 19.5451 104.39 19.2171C104.376 18.0883 104.376 16.9747 104.376 15.7962V15.8001Z" fill="#3CBC8D"/>
<path fill-rule="evenodd" clip-rule="evenodd" d="M116.2 21.3604H112.237C111.195 21.3871 110.332 20.4909 110.307 19.362C110.29 18.4201 110.867 17.581 111.709 17.3408C111.92 17.2874 112.135 17.2645 112.35 17.2721H119.433C120.148 17.2874 120.853 17.1196 121.497 16.784C122.233 16.3836 122.557 15.7009 122.483 14.7399C122.399 13.6491 122.089 13.119 121.198 12.9131C120.507 12.7644 119.803 12.6995 119.099 12.7148C117.376 12.7148 115.65 12.894 113.949 12.4135C112.656 12.097 111.48 11.3609 110.578 10.3084C108.613 7.94008 108.62 2.40262 113.107 0.621634C114.086 0.228826 115.118 0.0267008 116.161 0.0190735H122.906C123.949 0.0190735 124.794 0.926728 124.797 2.05558C124.797 3.1234 124.04 4.0158 123.057 4.09589C122.339 4.14166 121.613 4.11115 120.888 4.11496C119.172 4.11496 117.461 4.11496 115.749 4.17216C115.171 4.22937 114.608 4.39717 114.083 4.66413C113.35 4.99973 113.132 5.70526 113.143 6.5252C113.121 7.23455 113.516 7.88287 114.129 8.13457C115.069 8.59603 116.059 8.64561 117.07 8.64942C118.486 8.64942 119.902 8.44348 121.321 8.68374C123.882 9.1185 125.727 10.9033 126.175 13.4432C126.851 17.295 124.917 20.3917 121.342 21.143C120.68 21.2689 120.011 21.3375 119.338 21.3528C118.285 21.3871 117.242 21.3642 116.203 21.3642L116.2 21.3604Z" fill="#3CBC8D"/>
<path fill-rule="evenodd" clip-rule="evenodd" d="M21.8831 10.5563C21.8585 11.9139 22.1931 13.2525 22.8447 14.4119C24.6128 17.52 28.1808 18.1836 30.6357 15.8649C33.2527 13.3936 33.4429 8.64561 31.0372 5.94171C28.9099 3.53528 25.6835 3.51621 23.6055 5.90739C22.503 7.16209 21.8867 8.82866 21.8831 10.5601V10.5563ZM36.5248 11.4296C36.4191 14.5949 35.0419 17.7679 31.9706 19.8845C28.1174 22.5503 23.2392 21.5549 20.3052 17.6116C17.1599 13.4013 17.4205 6.93708 20.8899 3.02425C25.1799 -1.81149 32.2982 -0.671203 35.2955 5.33534C36.1303 7.01335 36.5318 8.80959 36.5248 11.4296Z" fill="white"/>
<path fill-rule="evenodd" clip-rule="evenodd" d="M77.1284 8.62654H82.3941C83.4437 8.58459 84.3242 9.46937 84.3665 10.602C84.4052 11.7385 83.5881 12.6919 82.542 12.7377C82.4927 12.7377 82.4469 12.7377 82.3976 12.7377H77.1319C77.3292 13.8017 77.8329 14.7704 78.5725 15.5064C79.77 16.6429 81.3092 17.2645 82.9013 17.2531C84.6412 17.295 86.3776 17.2531 88.1211 17.2531C89.1637 17.2416 90.0196 18.1455 90.0301 19.2743C90.0407 20.4032 89.2059 21.3299 88.1634 21.3413C86.1874 21.3413 84.1939 21.4596 82.225 21.2918C78.657 20.9905 75.7724 19.3353 74.1064 15.7314C73.1589 13.6797 72.9969 11.4715 73.1942 9.21766C73.3421 7.07819 74.1346 5.05313 75.4483 3.44757C77.0263 1.5598 79.1995 0.377563 81.5382 0.141115C83.0034 -0.0419415 84.5003 0.0419594 85.9831 0.0190773H88.1563C89.1989 -0.0228731 90.0794 0.858086 90.1182 1.98693C90.1569 3.11578 89.3433 4.0692 88.3007 4.11115C88.2514 4.11115 88.2056 4.11115 88.1563 4.11115C86.3776 4.11115 84.6025 4.0692 82.8238 4.11115C80.9817 4.16836 79.3368 4.80524 78.1005 6.38029C77.611 7.03243 77.2799 7.80279 77.1355 8.63036L77.1284 8.62654Z" fill="#3CBC8D"/>
<path fill-rule="evenodd" clip-rule="evenodd" d="M55.2276 7.21929C55.2276 8.84391 55.2804 10.4685 55.2276 12.0855C55.1113 14.9877 54.2237 17.5467 52.1069 19.4612C50.4409 20.9638 48.4615 21.4329 46.3447 21.3528C44.5906 21.3413 42.8894 20.7083 41.5017 19.5489C39.7864 18.0768 38.8953 16.0823 38.4832 13.8055C38.3705 13.1457 38.3141 12.4745 38.3176 11.8033C38.3 8.55789 38.3176 5.31245 38.3176 2.06701C38.3212 0.941979 39.1665 0.0305109 40.209 0.0343246C41.0438 0.0343246 41.7764 0.636885 42.0089 1.50259C42.0758 1.79624 42.1075 2.10134 42.0969 2.40643C42.0969 5.58322 42.0793 8.7562 42.111 11.933C42.111 13.5195 42.5654 14.9801 43.6432 16.1128C44.6012 17.1196 45.8304 17.3141 47.1055 17.2683C49.6907 17.1387 50.9094 15.4416 51.3567 12.9436C51.4236 12.5394 51.4553 12.1275 51.4483 11.7118V2.18142C51.4483 0.503406 52.998 -0.526286 54.3012 0.308909C54.9 0.659767 55.2628 1.34241 55.2417 2.07845C55.2346 3.77935 55.2311 5.49932 55.2311 7.21547L55.2276 7.21929Z" fill="white"/>
<path fill-rule="evenodd" clip-rule="evenodd" d="M62.9621 4.11877H58.2847C57.2421 4.16072 56.3616 3.27977 56.3229 2.15092C56.2841 1.02207 57.0977 0.0686511 58.1403 0.0267006C58.1896 0.0267006 58.2354 0.0267006 58.2847 0.0267006H71.3907C72.4333 -0.0114361 73.3103 0.873337 73.3455 2.006C73.3807 3.13485 72.5636 4.08445 71.5175 4.12259C71.4682 4.12259 71.4224 4.12259 71.3731 4.12259H66.7309V19.2934C66.7379 20.4184 65.9032 21.3375 64.8606 21.349C64.0153 21.3566 63.2686 20.7502 63.0361 19.8693C62.9692 19.5756 62.941 19.2705 62.9516 18.9654V4.69464L62.9621 4.11877Z" fill="white"/>
<path fill-rule="evenodd" clip-rule="evenodd" d="M134.526 7.45574L136.924 4.31327C137.815 3.14628 138.703 1.9793 139.594 0.816129C139.915 0.347047 140.383 0.0686491 140.876 2.9942e-06H141.366C141.676 0.0419534 141.982 0.171618 142.25 0.388998C142.676 0.732228 142.933 1.23182 143 1.75811V2.32634C142.958 2.65432 142.842 2.97848 142.644 3.26451C142.606 3.3179 142.567 3.37129 142.525 3.42087C140.566 6.00273 138.594 8.56933 136.643 11.1512C136.509 11.3419 136.431 11.5745 136.428 11.811C136.41 14.3013 136.428 16.7878 136.428 19.2781C136.449 20.2201 135.868 21.0553 135.026 21.2879C134.184 21.5434 133.293 21.1239 132.891 20.2849C132.736 19.9265 132.659 19.5375 132.655 19.1408C132.634 16.7344 132.655 14.328 132.655 11.9215C132.67 11.5898 132.564 11.2656 132.36 11.0177C130.408 8.50068 128.468 5.97222 126.544 3.43612C125.9 2.65432 125.9 1.46827 126.544 0.686464C127.157 -0.0686432 128.189 -0.225004 128.968 0.324165C129.214 0.518663 129.433 0.747483 129.619 1.00681C131.243 3.13484 132.863 5.25906 134.526 7.4443V7.45574Z" fill="#3CBC8D"/>
<path fill-rule="evenodd" clip-rule="evenodd" d="M79.8545 32.5116L80.8618 35.3528L81.8832 32.5116H82.7955L81.1823 36.7753C81.0133 37.2253 80.89 37.5037 80.809 37.6219C80.6293 37.8469 80.3546 37.9613 79.9848 37.9651H79.15V37.0765H79.9848C80.094 37.0765 80.1715 37.0575 80.2172 37.0155C80.263 36.9774 80.3088 36.8935 80.3546 36.7753L80.4849 36.413L78.9493 32.5116H79.8615H79.8545ZM76.2583 35.3184C76.4837 35.5244 76.755 35.6273 77.0684 35.6273C77.3819 35.6273 77.639 35.5244 77.8539 35.3184C78.0687 35.1125 78.1779 34.8265 78.1779 34.4566C78.1779 34.0866 78.0722 33.793 77.8574 33.5832C77.6461 33.3735 77.3819 33.2705 77.0684 33.2705C76.755 33.2705 76.4802 33.3658 76.2548 33.5603C76.0294 33.751 75.9167 34.0485 75.9167 34.4527C75.9167 34.8303 76.0294 35.1201 76.2548 35.3223L76.2583 35.3184ZM75.9308 30.8488H75.0608V36.3863H75.9096V35.7494C76.1773 36.1918 76.5507 36.4282 77.0332 36.4549C77.0931 36.4587 77.153 36.4625 77.2093 36.4625C77.7588 36.4625 78.2026 36.2833 78.5407 35.9248C78.8788 35.5663 79.0514 35.0782 79.0514 34.4566C79.0514 33.8349 78.8788 33.3658 78.5336 32.9959C78.1885 32.626 77.7412 32.4391 77.1882 32.4391H77.0402C76.5718 32.462 76.2055 32.6794 75.9308 33.0951V30.8488Z" fill="white"/>
<path fill-rule="evenodd" clip-rule="evenodd" d="M92.8443 36.432V41.7292H90.8473V36.7714C90.8473 35.3032 90.0301 34.3231 88.7938 34.3231C87.473 34.3231 86.4657 35.4328 86.4657 37.0537V41.7292H84.4651V32.3819H86.4305V33.6633H86.5009C87.1278 32.7595 88.1352 32.195 89.301 32.195C91.4566 32.195 92.8478 33.7968 92.8478 36.432H92.8443Z" fill="white"/>
<path fill-rule="evenodd" clip-rule="evenodd" d="M108.145 34.4909V32.3819H104.408V29.125H102.411V32.3819H96.1833C94.6899 32.3819 93.5769 33.4917 93.5769 35.0553C93.5769 36.2986 94.3764 37.2749 95.5951 37.5761L99.0187 38.3846C99.3145 38.4609 99.473 38.6859 99.473 39.0063C99.473 39.4029 99.23 39.647 98.9165 39.647H93.9291V41.7369H98.9341C100.445 41.7369 101.576 40.5889 101.576 39.0063C101.576 37.7439 100.776 36.7486 99.5223 36.4664L96.1164 35.6579C95.8734 35.6006 95.6832 35.3947 95.6832 35.0744C95.6832 34.7159 95.9086 34.4909 96.2397 34.4909H100.861H102.414V39.1969C102.414 40.7987 103.302 41.7369 104.795 41.7369H108.148V39.6279H105.193C104.689 39.6279 104.411 39.3266 104.411 38.8156V34.4871H108.148L108.145 34.4909Z" fill="white"/>
<path fill-rule="evenodd" clip-rule="evenodd" d="M110.733 36.0354H115.464C115.203 34.8684 114.298 34.1171 113.083 34.1171C111.868 34.1171 110.98 34.8875 110.737 36.0354H110.733ZM117.531 37.8049H110.698C110.857 39.0101 111.794 39.9711 113.15 40.0054C114.122 40.0245 114.974 39.5516 115.323 38.8003H117.394C116.837 40.833 115.15 42 113.118 42C110.283 42 108.634 39.7232 108.634 37.0689C108.634 34.4146 110.459 32.1188 113.118 32.1188C115.985 32.1188 117.792 34.5862 117.531 37.8011V37.8049Z" fill="white"/>
<path fill-rule="evenodd" clip-rule="evenodd" d="M125.16 35.8638C124.864 34.9218 124.012 34.2087 122.881 34.2087C121.3 34.2087 120.307 35.49 120.307 37.0689C120.307 38.6478 121.297 39.9292 122.881 39.9292C123.977 39.9292 124.864 39.2351 125.16 38.2359H127.263C126.883 40.3982 125.178 42 122.867 42C120.102 42 118.313 39.8148 118.313 37.0498C118.313 34.2849 120.102 32.1188 122.867 32.1188C125.178 32.1188 126.883 33.7014 127.263 35.8638H125.16Z" fill="white"/>
<path fill-rule="evenodd" clip-rule="evenodd" d="M136.572 36.432V41.7292H134.575V36.7714C134.575 35.3032 133.758 34.3231 132.522 34.3231C131.201 34.3231 130.193 35.4328 130.193 37.0537V41.7292H128.193V28.2631H130.193V33.6633H130.278C130.887 32.7595 131.859 32.195 133.025 32.195C135.181 32.195 136.572 33.7968 136.572 36.432Z" fill="white"/>
</g>
<defs>
<clipPath id="clip0_405_980">
<rect width="143" height="42" fill="white"/>
</clipPath>
</defs>
</svg>
